<?xml version="1.0" standalone="no"?>
<!DOCTYPE svg PUBLIC "-//W3C//DTD SVG 20010904//EN"
 "http://www.w3.org/TR/2001/REC-SVG-20010904/DTD/svg10.dtd">
<svg version="1.0" xmlns="http://www.w3.org/2000/svg"
 width="512.000000pt" height="512.000000pt" viewBox="0 0 512.000000 512.000000"
 preserveAspectRatio="xMidYMid meet">

<g transform="translate(0.000000,512.000000) scale(0.100000,-0.100000)"
fill="#000000" stroke="none">
<path d="M2540 4747 l0 -373 -95 -17 c-52 -9 -139 -31 -192 -49 -54 -17 -107
-33 -117 -35 -11 -2 -38 -14 -60 -27 -23 -14 -76 -43 -118 -66 -42 -23 -89
-53 -104 -67 -14 -13 -44 -36 -65 -50 -34 -23 -50 -43 -33 -43 3 0 53 23 112
51 59 27 130 61 157 74 28 13 82 33 120 46 39 12 75 25 80 30 12 8 241 49 279
49 l26 0 1 -292 c1 -721 1 -879 0 -1121 l-1 -257 -802 2 -803 3 2 185 c1 117
7 222 18 285 9 55 16 109 16 120 -1 33 105 352 137 412 110 210 268 423 402
541 109 96 240 187 351 243 43 21 80 43 83 48 17 26 -21 15 -125 -37 -378
-192 -669 -488 -860 -877 -124 -254 -199 -568 -199 -840 l0 -85 -375 0 -375 0
0 -40 0 -40 379 0 378 0 7 -72 c33 -355 211 -755 465 -1045 192 -219 453 -400
739 -514 115 -46 326 -97 457 -111 l115 -12 0 -383 0 -383 40 0 40 0 2 382 3
381 95 4 c374 15 750 148 1047 372 91 68 213 179 213 192 0 20 -24 6 -93 -52
-181 -157 -411 -263 -686 -318 -117 -24 -463 -47 -534 -37 l-47 7 0 795 0 794
823 -2 822 -3 -3 -35 c-14 -154 -84 -367 -168 -515 -108 -188 -300 -398 -479
-522 -140 -97 -132 -90 -118 -104 32 -32 289 146 438 304 148 157 190 214 264
365 63 125 113 270 140 400 12 55 21 103 21 106 0 3 171 6 380 6 l380 0 0 40
0 40 -376 0 -377 0 6 68 c8 79 -7 263 -29 371 -119 575 -572 1082 -1127 1260
-164 52 -343 81 -509 81 l-88 0 0 370 0 370 -40 0 -40 0 0 -373z m146 -545
c28 -42 57 -88 64 -100 22 -44 0 -36 -49 16 -27 29 -56 52 -65 52 -13 0 -16
11 -16 55 0 30 3 55 8 55 4 0 30 -35 58 -78z m352 10 c6 -18 -15 -14 -22 4 -4
10 -1 14 6 12 6 -2 14 -10 16 -16z m-287 -637 c153 -246 152 -245 146 -252
-11 -11 -73 45 -111 100 l-38 55 -59 -29 c-33 -16 -61 -29 -64 -29 -3 0 -5 80
-5 177 0 115 3 174 10 167 5 -5 60 -90 121 -189z m1264 -280 c201 -187 188
-170 209 -258 10 -43 15 -81 12 -84 -3 -4 -8 -4 -9 -2 -214 260 -387 480 -387
494 0 11 23 -8 175 -150z m-1291 -150 c83 -164 96 -195 77 -195 -17 0 -98 97
-138 165 -37 61 -42 78 -43 135 -2 84 -2 86 9 75 5 -6 48 -86 95 -180z m1200
-289 c82 -86 155 -156 161 -156 7 0 49 22 94 49 52 32 84 45 86 38 2 -7 6 -51
7 -99 l3 -87 -183 -3 c-100 -2 -182 -1 -182 3 0 3 4 9 10 15 6 6 -43 99 -146
273 -86 145 -158 271 -161 280 -5 16 48 -37 311 -313z m-449 -66 c44 -41 108
-101 142 -132 34 -31 60 -57 58 -59 -2 -2 -36 -3 -77 -1 l-73 4 -71 121 c-40
67 -78 133 -85 147 -12 24 -11 24 7 10 10 -8 55 -48 99 -90z m-291 -65 l117
-125 -48 0 -48 1 -67 107 c-64 102 -85 142 -76 142 2 0 57 -56 122 -125z
m-266 -97 c14 -14 16 -28 2 -28 -5 0 -14 9 -20 20 -12 22 -1 27 18 8z m-1521
-234 c76 -69 191 -171 255 -227 124 -108 150 -139 95 -111 -30 16 -355 234
-516 347 l-74 51 -43 -49 c-24 -28 -58 -73 -76 -102 -18 -29 -36 -52 -40 -53
-7 0 -45 158 -55 228 l-6 42 161 0 161 0 138 -126z m350 55 c67 -61 214 -184
319 -267 71 -56 -125 59 -296 174 -202 135 -220 148 -220 158 0 3 27 6 60 6
l60 0 77 -71z m793 -150 c0 -173 -3 -219 -12 -213 -56 33 -246 165 -257 178
-12 15 -10 82 6 121 2 8 -27 37 -71 70 -42 32 -76 59 -76 61 0 2 92 4 205 4
l205 0 0 -221z m-1284 -254 c134 -107 244 -197 244 -200 0 -8 -36 9 -245 113
l-200 100 -28 84 c-29 89 -31 98 -21 98 3 0 116 -88 250 -195z m1219 -254 c51
-23 65 -34 65 -51 l0 -22 -32 21 c-18 12 -50 32 -70 44 -21 12 -38 25 -38 30
0 11 5 9 75 -22z m65 -793 c0 -45 -3 -58 -15 -58 -18 0 -17 -3 -6 37 9 30 6
34 -40 73 -27 23 -49 45 -49 50 0 6 25 -2 55 -17 l55 -27 0 -58z"/>
<path d="M1918 4193 c7 -3 16 -2 19 1 4 3 -2 6 -13 5 -11 0 -14 -3 -6 -6z"/>
<path d="M1030 3116 c0 -2 8 -10 18 -17 15 -13 16 -12 3 4 -13 16 -21 21 -21
13z"/>
<path d="M968 2723 c7 -3 16 -2 19 1 4 3 -2 6 -13 5 -11 0 -14 -3 -6 -6z"/>
</g>
</svg>
