<?xml version="1.0" standalone="no"?>
<!DOCTYPE svg PUBLIC "-//W3C//DTD SVG 20010904//EN"
 "http://www.w3.org/TR/2001/REC-SVG-20010904/DTD/svg10.dtd">
<svg version="1.0" xmlns="http://www.w3.org/2000/svg"
 width="512.000000pt" height="512.000000pt" viewBox="0 0 512.000000 512.000000"
 preserveAspectRatio="xMidYMid meet">
<metadata>
Created by potrace 1.16, written by Peter Selinger 2001-2019
</metadata>
<g transform="translate(0.000000,512.000000) scale(0.100000,-0.100000)"
fill="#000000" stroke="none">
<path d="M2530 4745 l0 -375 -37 0 c-21 0 -56 -5 -78 -11 -22 -6 -49 -12 -60
-14 -51 -5 -229 -72 -315 -117 -124 -66 -290 -181 -290 -201 0 -16 31 -4 141
51 130 66 271 122 384 151 87 23 242 48 249 40 5 -5 8 -660 6 -1412 l0 -257
-799 0 -799 0 -5 33 c-9 61 2 352 18 447 8 52 18 110 20 129 13 82 93 306 152
425 107 215 280 434 443 559 30 23 57 45 60 48 10 13 155 102 234 144 75 41
108 75 72 75 -21 0 -209 -96 -291 -150 -217 -141 -410 -332 -568 -564 -45 -66
-167 -298 -179 -341 -3 -11 -24 -71 -47 -134 -22 -63 -39 -117 -37 -119 3 -2
-2 -22 -10 -44 -7 -21 -13 -42 -13 -46 1 -4 0 -11 -1 -17 -3 -12 -3 -12 -15
-85 -11 -71 -12 -81 -13 -232 l-2 -128 -375 0 -375 0 0 -45 0 -46 375 3 c294
2 375 0 376 -9 1 -7 2 -25 3 -40 1 -16 6 -53 11 -83 5 -30 8 -59 7 -64 -2 -4
2 -14 8 -21 6 -7 10 -17 8 -21 -5 -18 65 -254 99 -334 47 -109 110 -228 174
-325 39 -60 74 -112 78 -115 3 -3 26 -29 50 -58 42 -51 182 -191 246 -246 17
-14 37 -31 45 -38 29 -26 121 -88 130 -88 4 0 10 -3 12 -7 14 -32 337 -188
448 -217 14 -4 50 -14 80 -22 30 -9 64 -17 75 -18 11 -2 38 -8 60 -14 22 -6
60 -13 85 -15 25 -3 72 -8 105 -12 l60 -7 -3 -379 -2 -379 50 0 50 0 -2 379
-3 378 120 7 c145 7 195 12 243 25 20 6 51 13 69 16 18 3 43 9 57 15 15 5 26
7 26 5 0 -2 12 0 28 6 15 6 38 13 51 15 13 3 36 11 52 19 15 8 34 15 40 15 14
0 281 128 289 139 5 7 30 22 72 46 26 15 148 105 174 128 7 7 40 37 73 66 56
50 78 91 49 91 -6 0 -34 -21 -62 -47 -63 -59 -104 -93 -111 -93 -3 0 -27 -15
-53 -34 -102 -71 -394 -188 -506 -202 -22 -3 -43 -7 -47 -9 -3 -3 -28 -7 -55
-10 -27 -3 -69 -9 -94 -15 -62 -12 -239 -19 -335 -13 l-80 6 -3 792 -4 793
824 -2 823 -1 -3 -35 c-14 -154 -84 -367 -168 -515 -108 -188 -300 -398 -479
-522 -140 -97 -132 -90 -118 -104 32 -33 287 145 448 313 112 116 178 207 253
348 51 96 121 271 128 323 2 16 6 32 9 37 3 4 7 25 10 46 3 22 9 54 13 72 l7
33 378 -1 377 0 0 45 0 45 -372 0 -373 0 1 145 c1 89 -4 173 -12 218 -8 39
-16 83 -18 97 -2 14 -14 59 -26 100 -13 41 -24 77 -24 80 -7 45 -157 343 -199
395 -4 6 -26 35 -48 65 -63 86 -204 235 -283 298 -39 31 -73 60 -76 63 -3 3
-43 31 -90 61 -162 106 -401 206 -534 224 -16 2 -45 8 -65 13 -53 13 -289 34
-336 30 l-40 -4 3 367 3 368 -51 0 -50 0 0 -375z m244 -1212 c53 -84 96 -156
96 -160 0 -3 7 -15 17 -25 9 -10 13 -21 10 -24 -11 -11 -72 48 -113 107 l-39
57 -27 -20 c-16 -11 -28 -16 -28 -11 0 4 -4 4 -8 -2 -6 -9 -47 -35 -54 -35 -2
0 -3 78 -3 174 l0 174 26 -41 c15 -23 70 -111 123 -194z m1150 -158 c17 -16
86 -81 152 -142 110 -103 121 -117 134 -165 8 -29 13 -56 12 -60 -1 -4 3 -20
8 -35 l10 -28 -26 30 c-36 42 -48 56 -144 175 -46 58 -87 107 -90 110 -13 11
-140 181 -140 187 0 6 24 -14 84 -72z m-1200 -237 c47 -91 86 -171 86 -178 0
-19 -56 27 -93 78 -69 94 -88 137 -90 212 -2 39 0 67 4 63 3 -5 45 -83 93
-175z m1095 -177 c94 -97 189 -197 212 -224 23 -26 46 -47 50 -47 12 0 131 70
155 92 l21 19 7 -47 c3 -26 6 -71 6 -100 l0 -54 -182 1 c-101 0 -177 3 -170 6
6 2 12 9 12 13 0 10 -258 454 -296 509 -29 43 -31 66 -4 33 11 -13 96 -103
189 -201z m-331 -188 c64 -61 133 -124 152 -141 l35 -31 -77 -1 c-44 0 -78 4
-78 10 0 5 -24 49 -53 97 -72 119 -111 189 -103 181 4 -3 60 -55 124 -115z
m-2080 -394 c81 -73 156 -142 168 -153 11 -12 45 -42 75 -68 30 -27 72 -64 94
-83 l40 -36 -69 42 c-38 22 -74 45 -80 51 -6 5 -23 17 -38 26 -33 21 -230 154
-243 164 -33 25 -107 78 -149 107 l-49 32 -31 -35 c-17 -19 -39 -45 -48 -58
-88 -121 -83 -115 -86 -88 -2 14 -8 41 -14 60 -6 19 -13 44 -14 55 -2 11 -6
35 -8 54 -3 18 -8 40 -11 50 -4 14 11 16 155 14 l161 -2 147 -132z m344 60
c46 -41 92 -83 103 -94 11 -11 36 -31 54 -45 19 -14 39 -30 45 -36 6 -5 39
-29 74 -52 62 -43 82 -63 40 -41 -13 7 -48 29 -78 49 -30 20 -70 45 -89 55
-19 9 -39 21 -45 27 -10 8 -168 117 -263 181 -18 12 -33 24 -33 27 0 3 25 4
55 4 53 -2 57 -4 137 -75z m778 -137 l0 -212 -27 17 c-86 56 -190 128 -215
148 -26 22 -28 28 -20 59 6 19 8 37 5 40 -3 3 0 12 6 20 14 16 5 28 -63 81
-21 17 -47 37 -58 45 -17 13 1 15 176 15 l196 0 0 -213z m-1498 -84 c7 -7 38
-32 69 -55 31 -23 62 -47 70 -55 8 -7 45 -38 84 -68 38 -30 77 -62 87 -70 21
-19 31 -27 101 -79 31 -24 57 -44 57 -45 0 -1 -99 46 -219 106 l-220 108 -20
55 c-21 56 -35 115 -27 115 3 0 11 -6 18 -12z"/>
</g>
</svg>
